<svg version="1.2" xmlns="http://www.w3.org/2000/svg" viewBox="0 0 1024 1024" width="1024" height="1024">
	<title>quizinho</title>
	<style>
		.s0 { fill: #ffffff } 
		.s1 { fill: #cfbaf0 } 
	</style>
	<path id="icon white" fill-rule="evenodd" class="s0" d="m857.6 794c91.9 0 166.4-74.5 166.4-166.4v-435.2c0-91.9-74.5-166.4-166.4-166.4h-691.2c-91.9 0-166.4 74.5-166.4 166.4v435.2c0 91.9 74.5 166.4 166.4 166.4h293.8l256.7 192c28.3 21.2 68.4 15.4 89.6-12.9 8.2-11 12.7-24.5 12.7-38.3v-140.8zm-627.9-330c-41.3-38.5-64.7-92.5-64.7-148.9v-7.8c0-95 68.6-176 162.1-191.6 61.9-10.4 124.9 9.9 169.2 54.2l16.2 16.3 16.3-16.3c44.3-44.3 107.3-64.6 169.2-54.2 93.5 15.6 162 96.6 162 191.6v7.8c0 56.4-23.3 110.4-64.6 148.9l-245.3 229.2c-10.1 9.5-23.6 14.8-37.6 14.8-13.9 0-27.4-5.3-37.6-14.8z"/>
	<path id="icon light purple" fill-rule="evenodd" class="s1" d="m857.6 794c91.9 0 166.4-74.5 166.4-166.4v-435.2c0-91.9-74.5-166.4-166.4-166.4h-691.2c-91.9 0-166.4 74.5-166.4 166.4v435.2c0 91.9 74.5 166.4 166.4 166.4h293.8l256.7 192c28.3 21.2 68.4 15.4 89.6-12.9 8.2-11 12.7-24.5 12.7-38.3v-140.8zm-627.9-330c-41.3-38.5-64.7-92.5-64.7-148.9v-7.8c0-95 68.6-176 162.1-191.6 61.9-10.4 124.9 9.9 169.2 54.2l16.2 16.3 16.3-16.3c44.3-44.3 107.3-64.6 169.2-54.2 93.5 15.6 162 96.6 162 191.6v7.8c0 56.4-23.3 110.4-64.6 148.9l-245.3 229.2c-10.1 9.5-23.6 14.8-37.6 14.8-13.9 0-27.4-5.3-37.6-14.8z"/>
</svg>