<svg version="1.2" xmlns="http://www.w3.org/2000/svg" viewBox="0 0 1024 1024" width="1024" height="1024">
	<title>quizinho-light-purple-svg</title>
	<style>
		.s0 { fill: #ffffff } 
		.s1 { fill: #cfbaf0 } 
	</style>
	<path id="icon white" fill-rule="evenodd" class="s0" d="m819.2 794v140.8c0 13.8-4.5 27.3-12.7 38.3-21.2 28.3-61.3 34.1-89.6 12.9l-256.7-192h-293.8c-91.9 0-166.4-74.5-166.4-166.4v-435.2c0-91.9 74.5-166.4 166.4-166.4h691.2c91.9 0 166.4 74.5 166.4 166.4v435.2c0 91.9-74.5 166.4-166.4 166.4zm-344.3-100.8c10.2 9.5 23.7 14.8 37.6 14.8 14 0 27.5-5.3 37.6-14.8l245.3-229.2c41.3-38.5 64.6-92.5 64.6-148.9v-7.8c0-95-68.5-176-162-191.6-61.9-10.4-124.9 9.9-169.2 54.2l-16.3 16.3-16.2-16.3c-44.3-44.3-107.3-64.6-169.2-54.2-93.5 15.6-162.1 96.6-162.1 191.6v7.8c0 56.4 23.4 110.4 64.7 148.9z"/>
	<path id="icon light purple" fill-rule="evenodd" class="s1" d="m819.2 794v140.8c0 13.8-4.5 27.3-12.7 38.3-21.2 28.3-61.3 34.1-89.6 12.9l-256.7-192h-293.8c-91.9 0-166.4-74.5-166.4-166.4v-435.2c0-91.9 74.5-166.4 166.4-166.4h691.2c91.9 0 166.4 74.5 166.4 166.4v435.2c0 91.9-74.5 166.4-166.4 166.4zm-337.5-152.8c8.4 7.8 19.4 12.1 30.8 12.1 11.5 0 22.5-4.3 30.8-12.1l200.7-187.6c33.9-31.5 52.9-75.7 52.9-121.9v-6.4c0-77.7-56-144-132.6-156.8-50.6-8.5-102.2 8.1-138.5 44.4l-13.3 13.3-13.3-13.3c-36.2-36.3-87.8-52.9-138.4-44.4-76.6 12.8-132.7 79.1-132.7 156.8v6.4c0 46.2 19.1 90.4 52.9 121.9z"/>
</svg>