<svg version="1.2" xmlns="http://www.w3.org/2000/svg" viewBox="0 0 1024 1024" width="1024"
	height="1024">
	<title>New Project</title>
	<rect width="1024" height="1024" id="Color Fill 1" style="fill: transparent" />
	<path id="icon 1" fill-rule="evenodd" style="fill: #fff"
		d="m819.2 794v140.8c0 13.8-4.5 27.3-12.7 38.3-21.2 28.3-61.3 34.1-89.6 12.9l-256.7-192h-293.8c-91.9 0-166.4-74.5-166.4-166.4v-435.2c0-91.9 74.5-166.4 166.4-166.4h691.2c91.9 0 166.4 74.5 166.4 166.4v435.2c0 91.9-74.5 166.4-166.4 166.4zm-589.6-330l245.3 229.2c10.1 9.5 23.6 14.8 37.6 14.8 13.9 0 27.4-5.3 37.6-14.8l245.2-229.2c41.3-38.5 64.7-92.5 64.7-148.9v-7.8c0-95-68.6-176-162.1-191.6-61.9-10.4-124.9 9.9-169.2 54.2l-16.2 16.3-16.3-16.3c-44.3-44.3-107.3-64.6-169.2-54.2-93.5 15.6-162 96.6-162 191.6v7.8c0 56.4 23.3 110.4 64.6 148.9z" />
</svg>